<?xml version="1.0" encoding="UTF-8"?> <svg xmlns="http://www.w3.org/2000/svg" width="168" height="150" viewBox="0 0 168 150" fill="none"><path d="M98.4183 64.7812H94.4727V20.7924C94.8289 8.74953 106.569 12.0977 114.294 11.675V16.3444H102.176C100.105 16.3444 98.4183 18.3404 98.4183 20.7924V64.7812Z" fill="#30435E"></path><path d="M155.554 67.7266H151.046V31.5383C150.951 26.6234 144.159 26.8646 138.975 27.1036C137.136 27.1899 135.5 27.274 134.434 27.1301V21.7925C135.518 21.7991 136.678 21.7704 137.877 21.7394C145.709 21.538 155.18 21.3389 155.554 31.5383V67.7266Z" fill="#6D6972"></path><path d="M146.124 71.2305H141.614C140.377 44.3078 147.797 42.9535 125.004 43.6727V38.3351H136.332C141.732 38.3351 146.124 42.7056 146.124 48.0787V71.2305Z" fill="#30435E"></path><path d="M160.721 74.7305H133.572C132.846 74.7305 132.258 74.1418 132.258 73.416V69.041C132.258 68.3151 132.846 67.7265 133.572 67.7265H160.721C161.447 67.7265 162.035 68.3151 162.035 69.041V73.416C162.035 74.1418 161.447 74.7305 160.721 74.7305Z" fill="#8C3F5B"></path><path d="M133.906 150H159.924V74.7312H133.906V150Z" fill="#BAAAB0"></path><path d="M133.902 88.2969H159.922V83.2934H133.902V88.2969Z" fill="#8C3F5B"></path><path d="M133.902 114.816H159.922V106.81H133.902V114.816Z" fill="#8C3F5B"></path><path d="M133.902 145.172H159.922V137.165H133.902V145.172Z" fill="#8C3F5B"></path><path d="M159.925 150H150.484V145.174H159.925V137.167H150.484V125.547H159.925V150Z" fill="#D6CDD1"></path><path d="M150.484 121.656V114.818H159.925V106.812H150.484V95.1939H159.925V121.656H150.484Z" fill="#D6CDD1"></path><path d="M150.484 91.3008V88.2978H159.925V83.2943H150.484V74.7325H159.925V91.3008H150.484Z" fill="#D6CDD1"></path><path d="M150.484 88.2969H159.925V83.2934H150.484V88.2969Z" fill="#BB8E9F"></path><path d="M150.484 114.816H159.925V106.81H150.484V114.816Z" fill="#BB8E9F"></path><path d="M150.484 145.172H159.925V137.165H150.484V145.172Z" fill="#BB8E9F"></path><path d="M160.722 95.1914H133.574C132.848 95.1914 132.259 94.6028 132.259 93.8769C132.211 92.8767 132.169 91.2767 133.574 91.2988H160.722C162.108 91.2767 162.108 92.8767 162.037 93.8769C162.037 94.6028 161.448 95.1914 160.722 95.1914Z" fill="#30435E"></path><path d="M160.722 125.547H133.574C132.848 125.547 132.259 124.958 132.259 124.232C132.211 123.232 132.169 121.632 133.574 121.654H160.722C162.108 121.632 162.108 123.232 162.037 124.232C162.037 124.958 161.448 125.547 160.722 125.547Z" fill="#30435E"></path><path d="M137.779 7.00781H110.631C109.905 7.00781 109.316 6.41917 109.316 5.69111V1.31614C109.316 0.590295 109.905 0.00164366 110.631 0.00164366H137.779C138.505 0.00164366 139.094 0.590295 139.094 1.31614V5.69111C139.094 6.41917 138.505 7.00781 137.779 7.00781Z" fill="#8C3F5B"></path><path d="M110.961 150H136.981V7.00406H110.961V150Z" fill="#BAAAB0"></path><path d="M110.961 20.5703H136.981V15.5668H110.961V20.5703Z" fill="#8C3F5B"></path><path d="M110.961 47.0898H136.981V39.0857H110.961V47.0898Z" fill="#8C3F5B"></path><path d="M110.961 77.4453H136.981V69.4389H110.961V77.4453Z" fill="#8C3F5B"></path><path d="M110.961 101.965H136.981V95.627H110.961V101.965Z" fill="#8C3F5B"></path><path d="M110.961 126.984H136.981V108.471H110.961V126.984Z" fill="#8C3F5B"></path><path d="M136.98 150H127.539V126.983H136.98V137.167V145.174V150ZM136.98 108.47H127.539V101.964H136.98V106.81V108.47ZM136.98 95.6258H127.539V77.4465H136.98V83.293V88.2965V91.2995V95.192V95.6258ZM136.98 69.44H127.539V47.0893H136.98V69.44ZM136.98 39.0851H127.539V20.5716H136.98V38.3548V39.0851ZM136.98 15.5681H127.539V7.00406H136.98V15.5681Z" fill="#D6CDD1"></path><path d="M127.539 20.5703H136.979V15.5668H127.539V20.5703Z" fill="#BB8E9F"></path><path d="M136.98 47.0898H127.539V39.0856H136.98V43.8789V47.0898Z" fill="#BB8E9F"></path><path d="M127.539 77.4453H136.979V69.4389H127.539V77.4453Z" fill="#BB8E9F"></path><path d="M127.539 101.965H136.979V95.627H127.539V101.965Z" fill="#BB8E9F"></path><path d="M136.98 126.984H127.539V108.471H136.98V114.818V121.656V125.548V126.984Z" fill="#BB8E9F"></path><path d="M137.777 27.4648H110.629C109.903 27.4648 109.314 26.8762 109.314 26.1504C109.265 25.1501 109.223 23.5501 110.629 23.5723H137.777C139.162 23.5501 139.162 25.1501 139.091 26.1504C139.091 26.8762 138.503 27.4648 137.777 27.4648Z" fill="#6D6972"></path><path d="M137.777 57.8203H110.629C109.903 57.8203 109.314 57.2317 109.314 56.5058C109.265 55.5078 109.223 53.9056 110.629 53.93H137.777C139.162 53.9078 139.162 55.5056 139.091 56.5058C139.091 57.2317 138.503 57.8203 137.777 57.8203Z" fill="#6D6972"></path><path d="M137.777 88.1758H110.629C109.903 88.1758 109.314 87.5871 109.314 86.8591C109.265 85.861 109.223 84.2611 110.629 84.2832H137.777C139.162 84.2611 139.162 85.861 139.091 86.8591C139.091 87.5871 138.503 88.1758 137.777 88.1758Z" fill="#6D6972"></path><path d="M126.938 150H123.557V48.1183C123.557 46.4475 122.408 45.0888 120.997 45.0888H106.969V41.0856H120.997C124.272 41.0856 126.938 44.2412 126.938 48.1183V150Z" fill="#30435E"></path><path d="M156.912 139.168C149.669 140.206 143.331 135.057 143.305 126.57V74.732H146.686V126.572C146.841 133.114 151.431 135.86 156.914 135.165C160.918 135.165 164.175 131.31 164.175 126.572V68.4185C164.155 63.0233 160.22 59.2502 155.556 59.8234V55.8202C162.106 55.1784 167.534 60.848 167.556 68.4185V126.572C167.556 133.517 162.781 139.168 156.912 139.168Z" fill="#6D6972"></path><path d="M32.2794 6.56845V77.168H6.34375V6.56845H32.2794Z" fill="#BAAAB0"></path><path d="M32.2794 6.56845V77.168H6.34375V46.2554H21.5622C24.2819 46.3328 25.6406 42.365 25.291 39.3598C25.291 36.4144 23.6224 34.0222 21.5622 34.0222H6.34375V21.1252H21.5622C24.0539 21.0101 25.2865 18.2373 25.291 15.7898C25.291 12.8399 23.6224 10.4522 21.5622 10.4522H6.34375V6.56845H32.2794Z" fill="#A3A2A2"></path><path d="M34.6273 6.57422H4.76803C4.35199 6.57422 4.01562 6.23785 4.01562 5.82182V1.64379C4.01562 1.22775 4.35199 0.891385 4.76803 0.891385H34.6273C35.0433 0.891385 35.3797 1.22775 35.3797 1.64379V5.82182C35.3797 6.23785 35.0433 6.57422 34.6273 6.57422Z" fill="#8C3F5B"></path><path d="M34.6273 31.6992H4.76803C4.35199 31.6992 4.01562 31.3629 4.01562 30.949V26.7688C4.01562 26.355 4.35199 26.0186 4.76803 26.0186H34.6273C35.0433 26.0186 35.3797 26.355 35.3797 26.7688V30.949C35.3797 31.3629 35.0433 31.6992 34.6273 31.6992Z" fill="#6D6972"></path><path d="M34.6273 56.832H4.76803C4.35199 56.832 4.01562 56.4957 4.01562 56.0818V51.9016C4.01562 51.4856 4.35199 51.1492 4.76803 51.1492H34.6273C35.0433 51.1492 35.3797 51.4856 35.3797 51.9016V56.0818C35.3797 56.4957 35.0433 56.832 34.6273 56.832Z" fill="#6D6972"></path><path d="M107.447 37.8327V53.9297H44.1836V37.8327C44.1836 36.9608 44.7833 36.2483 45.5224 36.2483H106.108C106.847 36.2483 107.447 36.9608 107.447 37.8327Z" fill="#B85246"></path><path d="M120.21 150H33.4141V58.663C33.4141 56.0473 35.534 53.9295 38.1475 53.9295H115.477C118.09 53.9295 120.21 56.0473 120.21 58.663V150Z" fill="#C6CACC"></path><path d="M87.2414 150H0.445312V58.663C0.445312 56.0473 2.56532 53.9295 5.17881 53.9295H82.5079C85.1214 53.9295 87.2414 56.0473 87.2414 58.663V150Z" fill="#617599"></path><path d="M15.0332 61.7584C14.9868 62.586 15.3342 64.7746 14.1016 64.7812H6.63731C5.41134 64.7746 5.74329 62.586 5.70567 61.7584C5.70567 61.0569 6.12391 60.4881 6.63731 60.4881H14.1016C14.6172 60.4881 15.0332 61.0569 15.0332 61.7584Z" fill="#30435E"></path><path d="M27.9317 61.7584C27.8852 62.586 28.2326 64.7746 26.9978 64.7812H19.5358C18.3098 64.7746 18.6417 62.586 18.6041 61.7584C18.6041 61.0569 19.0201 60.4881 19.5358 60.4881H26.9978C27.5134 60.4881 27.9317 61.0569 27.9317 61.7584Z" fill="#30435E"></path><path d="M40.8284 61.7584C40.7841 62.586 41.1315 64.7746 39.8967 64.7812H32.4347C31.2065 64.7746 31.5406 62.586 31.503 61.7584C31.503 61.0569 31.919 60.4881 32.4347 60.4881H39.8967C40.4123 60.4881 40.8284 61.0569 40.8284 61.7584Z" fill="#30435E"></path><path d="M53.7285 61.7584C53.6821 62.586 54.0295 64.7746 52.7969 64.7812H45.3326C44.1067 64.7746 44.4386 62.586 44.401 61.7584C44.401 61.0569 44.8192 60.4881 45.3326 60.4881H52.7969C53.3125 60.4881 53.7285 61.0569 53.7285 61.7584Z" fill="#30435E"></path><path d="M15.0332 71.481C14.9868 72.3087 15.3342 74.4973 14.1016 74.5039H6.63731C5.41134 74.4973 5.74329 72.3087 5.70567 71.481C5.70567 70.7795 6.12391 70.2108 6.63731 70.2108H14.1016C14.6172 70.2108 15.0332 70.7795 15.0332 71.481Z" fill="#30435E"></path><path d="M27.9317 71.481C27.8852 72.3087 28.2326 74.4973 26.9978 74.5039H19.5358C18.3098 74.4973 18.6417 72.3087 18.6041 71.481C18.6041 70.7795 19.0201 70.2108 19.5358 70.2108H26.9978C27.5134 70.2108 27.9317 70.7795 27.9317 71.481Z" fill="#30435E"></path><path d="M40.8284 71.481C40.7841 72.3087 41.1315 74.4973 39.8967 74.5039H32.4347C31.2065 74.4973 31.5406 72.3087 31.503 71.481C31.503 70.7795 31.919 70.2108 32.4347 70.2108H39.8967C40.4123 70.2108 40.8284 70.7795 40.8284 71.481Z" fill="#30435E"></path><path d="M53.7285 71.481C53.6821 72.3087 54.0295 74.4973 52.7969 74.5039H45.3326C44.1067 74.4973 44.4386 72.3087 44.401 71.481C44.401 70.7795 44.8192 70.2108 45.3326 70.2108H52.7969C53.3125 70.2108 53.7285 70.7795 53.7285 71.481Z" fill="#30435E"></path><path d="M15.0332 81.2076C14.9868 82.0352 15.3342 84.2238 14.1016 84.2305H6.63731C5.41134 84.2238 5.74329 82.0352 5.70567 81.2076C5.70567 80.5061 6.12391 79.9374 6.63731 79.9374H14.1016C14.6172 79.9374 15.0332 80.5061 15.0332 81.2076Z" fill="#30435E"></path><path d="M27.9317 81.2076C27.8852 82.0352 28.2326 84.2238 26.9978 84.2305H19.5358C18.3098 84.2238 18.6417 82.0352 18.6041 81.2076C18.6041 80.5061 19.0201 79.9374 19.5358 79.9374H26.9978C27.5134 79.9374 27.9317 80.5061 27.9317 81.2076Z" fill="#30435E"></path><path d="M40.8284 81.2076C40.7841 82.0352 41.1315 84.2238 39.8967 84.2305H32.4347C31.2065 84.2238 31.5406 82.0352 31.503 81.2076C31.503 80.5061 31.919 79.9374 32.4347 79.9374H39.8967C40.4123 79.9374 40.8284 80.5061 40.8284 81.2076Z" fill="#30435E"></path><path d="M53.7285 81.2076C53.6821 82.0352 54.0295 84.2238 52.7969 84.2305H45.3326C44.1067 84.2238 44.4386 82.0352 44.401 81.2076C44.401 80.5061 44.8192 79.9374 45.3326 79.9374H52.7969C53.3125 79.9374 53.7285 80.5061 53.7285 81.2076Z" fill="#30435E"></path><path d="M15.0332 90.9302C14.9868 91.7579 15.3342 93.9465 14.1016 93.9531H6.63731C5.41134 93.9465 5.74329 91.7579 5.70567 90.9302C5.70567 90.2287 6.12391 89.6622 6.63731 89.6622H14.1016C14.6172 89.6622 15.0332 90.2287 15.0332 90.9302Z" fill="#30435E"></path><path d="M27.9317 90.9302C27.8852 91.7579 28.2326 93.9465 26.9978 93.9531H19.5358C18.3098 93.9465 18.6417 91.7579 18.6041 90.9302C18.6041 90.2287 19.0201 89.6622 19.5358 89.6622H26.9978C27.5134 89.6622 27.9317 90.2287 27.9317 90.9302Z" fill="#30435E"></path><path d="M40.8284 90.9302C40.7841 91.7579 41.1315 93.9465 39.8967 93.9531H32.4347C31.2065 93.9465 31.5406 91.7579 31.503 90.9302C31.503 90.2287 31.919 89.6622 32.4347 89.6622H39.8967C40.4123 89.6622 40.8284 90.2287 40.8284 90.9302Z" fill="#30435E"></path><path d="M53.7285 90.9302C53.6821 91.7579 54.0295 93.9465 52.7969 93.9531H45.3326C44.1067 93.9465 44.4386 91.7579 44.401 90.9302C44.401 90.2287 44.8192 89.6622 45.3326 89.6622H52.7969C53.3125 89.6622 53.7285 90.2287 53.7285 90.9302Z" fill="#30435E"></path><path d="M15.0332 100.61C14.9868 101.438 15.3342 103.626 14.1016 103.633H6.63731C5.41134 103.626 5.74329 101.438 5.70567 100.61C5.70567 99.9084 6.12391 99.3419 6.63731 99.3419H14.1016C14.6172 99.3419 15.0332 99.9084 15.0332 100.61Z" fill="#30435E"></path><path d="M27.9317 100.61C27.8852 101.438 28.2326 103.626 26.9978 103.633H19.5358C18.3098 103.626 18.6417 101.438 18.6041 100.61C18.6041 99.9084 19.0201 99.3419 19.5358 99.3419H26.9978C27.5134 99.3419 27.9317 99.9084 27.9317 100.61Z" fill="#30435E"></path><path d="M40.8284 100.61C40.7841 101.438 41.1315 103.626 39.8967 103.633H32.4347C31.2065 103.626 31.5406 101.438 31.503 100.61C31.503 99.9084 31.919 99.3419 32.4347 99.3419H39.8967C40.4123 99.3419 40.8284 99.9084 40.8284 100.61Z" fill="#30435E"></path><path d="M53.7285 100.61C53.6821 101.438 54.0295 103.626 52.7969 103.633H45.3326C44.1067 103.626 44.4386 101.438 44.401 100.61C44.401 99.9084 44.8192 99.3419 45.3326 99.3419H52.7969C53.3125 99.3419 53.7285 99.9084 53.7285 100.61Z" fill="#30435E"></path><path d="M67.1035 61.7584C67.0571 62.586 67.4045 64.7746 66.1719 64.7812H58.7076C57.4817 64.7746 57.8136 62.586 57.776 61.7584C57.776 61.0569 58.192 60.4881 58.7076 60.4881H66.1719C66.6853 60.4881 67.1035 61.0569 67.1035 61.7584Z" fill="#30435E"></path><path d="M67.1035 71.481C67.0571 72.3087 67.4045 74.4973 66.1719 74.5039H58.7076C57.4817 74.4973 57.8136 72.3087 57.776 71.481C57.776 70.7795 58.192 70.2108 58.7076 70.2108H66.1719C66.6853 70.2108 67.1035 70.7795 67.1035 71.481Z" fill="#30435E"></path><path d="M67.1035 81.2076C67.0571 82.0352 67.4045 84.2238 66.1719 84.2305H58.7076C57.4817 84.2238 57.8136 82.0352 57.776 81.2076C57.776 80.5061 58.192 79.9374 58.7076 79.9374H66.1719C66.6853 79.9374 67.1035 80.5061 67.1035 81.2076Z" fill="#30435E"></path><path d="M67.1035 90.9302C67.0571 91.7579 67.4045 93.9465 66.1719 93.9531H58.7076C57.4817 93.9465 57.8136 91.7579 57.776 90.9302C57.776 90.2287 58.192 89.6622 58.7076 89.6622H66.1719C66.6853 89.6622 67.1035 90.2287 67.1035 90.9302Z" fill="#30435E"></path><path d="M67.1035 100.61C67.0571 101.438 67.4045 103.626 66.1719 103.633H58.7076C57.4817 103.626 57.8136 101.438 57.776 100.61C57.776 99.9084 58.192 99.3419 58.7076 99.3419H66.1719C66.6853 99.3419 67.1035 99.9084 67.1035 100.61Z" fill="#30435E"></path><path d="M80.479 61.7584C80.4325 62.586 80.78 64.7746 79.5452 64.7812H72.0831C70.8549 64.7746 71.1891 62.586 71.1514 61.7584C71.1514 61.0569 71.5675 60.4881 72.0831 60.4881H79.5452C80.0608 60.4881 80.479 61.0569 80.479 61.7584Z" fill="#30435E"></path><path d="M80.479 71.481C80.4325 72.3087 80.78 74.4973 79.5452 74.5039H72.0831C70.8549 74.4973 71.1891 72.3087 71.1514 71.481C71.1514 70.7795 71.5675 70.2108 72.0831 70.2108H79.5452C80.0608 70.2108 80.479 70.7795 80.479 71.481Z" fill="#30435E"></path><path d="M80.479 81.2076C80.4325 82.0352 80.78 84.2238 79.5452 84.2305H72.0831C70.8549 84.2238 71.1891 82.0352 71.1514 81.2076C71.1514 80.5061 71.5675 79.9374 72.0831 79.9374H79.5452C80.0608 79.9374 80.479 80.5061 80.479 81.2076Z" fill="#30435E"></path><path d="M80.479 90.9302C80.4325 91.7579 80.78 93.9465 79.5452 93.9531H72.0831C70.8549 93.9465 71.1891 91.7579 71.1514 90.9302C71.1514 90.2287 71.5675 89.6622 72.0831 89.6622H79.5452C80.0608 89.6622 80.479 90.2287 80.479 90.9302Z" fill="#30435E"></path><path d="M80.479 100.61C80.4325 101.438 80.78 103.626 79.5452 103.633H72.0831C70.8549 103.626 71.1891 101.438 71.1514 100.61C71.1514 99.9084 71.5675 99.3419 72.0831 99.3419H79.5452C80.0608 99.3419 80.479 99.9084 80.479 100.61Z" fill="#30435E"></path><path d="M98.4052 61.7584C98.3521 62.451 98.6664 64.7259 97.7391 64.7812H92.4148C92.0475 64.7812 91.7487 64.2125 91.7487 63.511C91.8018 62.8162 91.4876 60.5435 92.4148 60.4881H97.7391C98.1065 60.4881 98.4052 61.0569 98.4052 61.7584Z" fill="#617599"></path><path d="M107.608 61.7584C107.555 62.451 107.87 64.7259 106.942 64.7812H101.618C101.251 64.7812 100.952 64.2125 100.952 63.511C101.005 62.8162 100.691 60.5435 101.618 60.4881H106.942C107.312 60.4881 107.608 61.0569 107.608 61.7584Z" fill="#617599"></path><path d="M116.814 61.7584C116.761 62.451 117.075 64.7259 116.15 64.7812H110.823C110.456 64.7812 110.16 64.2125 110.16 63.511C110.213 62.8162 109.896 60.5435 110.823 60.4881H116.15C116.517 60.4881 116.814 61.0569 116.814 61.7584Z" fill="#617599"></path><path d="M98.4052 71.481C98.3521 72.1737 98.6664 74.4486 97.7391 74.5039H92.4148C92.0475 74.5039 91.7487 73.9352 91.7487 73.2337C91.8018 72.541 91.4876 70.2661 92.4148 70.2108H97.7391C98.1065 70.2108 98.4052 70.7795 98.4052 71.481Z" fill="#617599"></path><path d="M107.608 71.481C107.555 72.1737 107.87 74.4486 106.942 74.5039H101.618C101.251 74.5039 100.952 73.9352 100.952 73.2337C101.005 72.541 100.691 70.2661 101.618 70.2108H106.942C107.312 70.2108 107.608 70.7795 107.608 71.481Z" fill="#617599"></path><path d="M116.814 71.481C116.761 72.1737 117.075 74.4486 116.15 74.5039H110.823C110.456 74.5039 110.16 73.9352 110.16 73.2337C110.213 72.541 109.896 70.2661 110.823 70.2108H116.15C116.517 70.2108 116.814 70.7795 116.814 71.481Z" fill="#617599"></path><path d="M98.4052 81.2076C98.3521 81.9025 98.6664 84.1751 97.7391 84.2305H92.4148C92.0475 84.2305 91.7487 83.6617 91.7487 82.9602C91.8018 82.2676 91.4876 79.9927 92.4148 79.9374H97.7391C98.1065 79.9374 98.4052 80.5061 98.4052 81.2076Z" fill="#617599"></path><path d="M107.608 81.2076C107.555 81.9025 107.87 84.1751 106.942 84.2305H101.618C101.251 84.2305 100.952 83.6617 100.952 82.9602C101.005 82.2676 100.691 79.9927 101.618 79.9374H106.942C107.312 79.9374 107.608 80.5061 107.608 81.2076Z" fill="#617599"></path><path d="M116.814 81.2076C116.761 81.9025 117.075 84.1751 116.15 84.2305H110.823C110.456 84.2305 110.16 83.6617 110.16 82.9602C110.213 82.2676 109.896 79.9927 110.823 79.9374H116.15C116.517 79.9374 116.814 80.5061 116.814 81.2076Z" fill="#617599"></path><path d="M98.4052 90.9302C98.3521 91.6251 98.6664 93.8978 97.7391 93.9531H92.4148C92.0475 93.9531 91.7487 93.3844 91.7487 92.6829C91.8018 91.9902 91.4876 89.7153 92.4148 89.6622H97.7391C98.1065 89.6622 98.4052 90.2287 98.4052 90.9302Z" fill="#617599"></path><path d="M107.608 90.9302C107.555 91.6251 107.87 93.8978 106.942 93.9531H101.618C101.251 93.9531 100.952 93.3844 100.952 92.6829C101.005 91.9902 100.691 89.7153 101.618 89.6622H106.942C107.312 89.6622 107.608 90.2287 107.608 90.9302Z" fill="#617599"></path><path d="M116.814 90.9302C116.761 91.6251 117.075 93.8978 116.15 93.9531H110.823C110.456 93.9531 110.16 93.3844 110.16 92.6829C110.213 91.9902 109.896 89.7153 110.823 89.6622H116.15C116.517 89.6622 116.814 90.2287 116.814 90.9302Z" fill="#617599"></path><path d="M98.4052 100.61C98.3521 101.305 98.6664 103.577 97.7391 103.633H92.4148C92.0475 103.633 91.7487 103.064 91.7487 102.363C91.8018 101.67 91.4876 99.395 92.4148 99.3419H97.7391C98.1065 99.3419 98.4052 99.9084 98.4052 100.61Z" fill="#617599"></path><path d="M107.608 100.61C107.555 101.305 107.87 103.577 106.942 103.633H101.618C101.251 103.633 100.952 103.064 100.952 102.363C101.005 101.67 100.691 99.395 101.618 99.3419H106.942C107.312 99.3419 107.608 99.9084 107.608 100.61Z" fill="#617599"></path><path d="M116.814 100.61C116.761 101.305 117.075 103.577 116.15 103.633H110.823C110.456 103.633 110.16 103.064 110.16 102.363C110.213 101.67 109.896 99.395 110.823 99.3419H116.15C116.517 99.3419 116.814 99.9084 116.814 100.61Z" fill="#617599"></path><path d="M87.2414 118.871H0.445312V110.577H87.2414V118.871Z" fill="#26B6DD"></path><path d="M78.9738 118.87H73.4326V110.576H78.9738V118.87ZM66.0126 118.87V110.576H71.5538V118.87H66.0126ZM58.5904 118.87V110.576H64.1338V118.87H58.5904ZM51.1704 118.87V110.576H56.7116V118.87H51.1704ZM43.7504 118.87V110.576H49.2916V118.87H43.7504ZM36.3282 118.87V110.576H41.8716V118.87H36.3282ZM28.9082 118.87V110.576H34.4494V118.87H28.9082ZM21.486 118.87V110.576H27.0294V118.87H21.486ZM14.066 118.87V110.576H19.6072V118.87H14.066ZM6.64598 118.87V110.576H12.1872V118.87H6.64598ZM87.2414 110.576V108.469H0.445312V110.576H4.76719V118.87H0.445312V120.977H87.2414V118.87H80.8526V110.576H87.2414Z" fill="#30435E"></path><path d="M59.4365 125.979C59.5538 127.022 58.8744 128.082 57.8498 128.066H24.4366C22.3276 128.095 22.3188 124.2 24.4366 124.229H57.8498C58.7261 124.229 59.4365 125.012 59.4365 125.979Z" fill="#C6CACC"></path><path d="M57.3209 150H24.9102V128.068H57.3209V150Z" fill="#30435E"></path><path d="M42.0622 150H40.168V128.068H42.0622V150Z" fill="#C6CACC"></path><path d="M38.7183 131.209V147.441C38.7183 147.994 38.2713 148.441 37.7159 148.441H27.5806C27.0273 148.441 26.5781 147.994 26.5781 147.441V131.209C26.5781 130.654 27.0273 130.207 27.5806 130.207H37.7159C38.2713 130.207 38.7183 130.654 38.7183 131.209Z" fill="#26B6DD"></path><path d="M37.1073 137.213V140.769C37.1073 141.17 36.782 141.493 36.3815 141.493C35.9013 141.561 35.3724 141.311 35.379 140.769V137.213C35.3635 136.228 37.1228 136.228 37.1073 137.213Z" fill="#C6CACC"></path><path d="M43.5664 131.209V147.441C43.5664 147.994 44.0156 148.441 44.5689 148.441H54.7041C55.2574 148.441 55.7066 147.994 55.7066 147.441V131.209C55.7066 130.654 55.2574 130.207 54.7041 130.207H44.5689C44.0156 130.207 43.5664 130.654 43.5664 131.209Z" fill="#26B6DD"></path><path d="M45.1798 137.213V140.769C45.1798 141.17 45.5029 141.493 45.9034 141.493C46.3836 141.561 46.9125 141.311 46.9059 140.769V137.213C46.9214 136.228 45.1643 136.228 45.1798 137.213Z" fill="white"></path><path d="M105.618 129.664L95.0508 116.499L95.6638 115.809L106.231 128.974L105.618 129.664Z" fill="#617599"></path><path d="M105.618 139.656L95.0508 126.494L95.6638 125.803L106.231 138.968L105.618 139.656Z" fill="#617599"></path><path d="M105.618 149.652L95.0508 136.488L95.6638 135.799L106.231 148.964L105.618 149.652Z" fill="#617599"></path><path d="M95.6638 129.664L95.0508 128.974L105.618 115.809L106.231 116.499L95.6638 129.664Z" fill="#617599"></path><path d="M95.6638 139.656L95.0508 138.968L105.618 125.803L106.231 126.494L95.6638 139.656Z" fill="#617599"></path><path d="M95.6638 149.652L95.0508 148.964L105.618 135.799L106.231 136.488L95.6638 149.652Z" fill="#617599"></path><path d="M108.891 116.152H79.5698C79.1914 116.152 78.886 115.845 78.886 115.469C78.9988 114.884 78.5297 113.267 79.5698 113.293H108.891C109.903 113.264 109.498 114.884 109.575 115.469C109.575 115.845 109.267 116.152 108.891 116.152Z" fill="white"></path><path d="M82.6114 116.152C82.2529 115.816 66.364 116.951 67.1031 115.468C67.2005 114.884 66.7601 113.266 67.7869 113.293H82.6114C83.625 113.264 83.2178 114.884 83.2952 115.468C83.2952 115.844 82.9898 116.152 82.6114 116.152Z" fill="#C6CACC"></path><path d="M95.9194 150H94.793V116.153H95.9194V150Z" fill="#617599"></path><path d="M80.5478 129.664L68.4297 116.499L69.1312 115.809L81.2515 128.974L80.5478 129.664Z" fill="#C6CACC"></path><path d="M80.5478 139.656L68.4297 126.494L69.1312 125.803L81.2515 138.968L80.5478 139.656Z" fill="#C6CACC"></path><path d="M80.5478 149.652L68.4297 136.488L69.1312 135.799L81.2515 148.964L80.5478 149.652Z" fill="#C6CACC"></path><path d="M69.1312 129.664L68.4297 128.974L80.5478 115.809L81.2515 116.499L69.1312 129.664Z" fill="#C6CACC"></path><path d="M69.1312 139.656L68.4297 138.968L80.5478 125.803L81.2515 126.494L69.1312 139.656Z" fill="#C6CACC"></path><path d="M69.1312 149.652L68.4297 148.964L80.5478 135.799L81.2515 136.488L69.1312 149.652Z" fill="#C6CACC"></path><path d="M105.756 129.777L80.5195 116.613L80.8603 115.696L106.097 128.861L105.756 129.777Z" fill="white"></path><path d="M105.756 139.773L80.5195 126.609L80.8603 125.692L106.097 138.857L105.756 139.773Z" fill="white"></path><path d="M105.756 149.766L80.5195 136.601L80.8603 135.685L106.097 148.849L105.756 149.766Z" fill="white"></path><path d="M80.8714 129.777L80.5195 128.861L106.617 115.696L106.969 116.613L80.8714 129.777Z" fill="white"></path><path d="M80.8714 139.773L80.5195 138.857L106.617 125.692L106.969 126.609L80.8714 139.773Z" fill="white"></path><path d="M80.8714 149.766L80.5195 148.849L106.617 135.685L106.969 136.601L80.8714 149.766Z" fill="white"></path><path d="M81.2536 150H80.125V116.153H81.2536V150Z" fill="#C6CACC"></path><path d="M106.968 150H105.84V116.153H106.968V150Z" fill="#617599"></path><path d="M69.5561 150H68.4297V116.153H69.5561V150Z" fill="#C6CACC"></path><path d="M76.8144 37.8327V53.9297H13.5508V37.8327C13.5508 36.9608 14.1505 36.2483 14.8874 36.2483H75.4756C76.2147 36.2483 76.8144 36.9608 76.8144 37.8327Z" fill="#8C3F5B"></path><path d="M107.444 50.5926V53.9297H76.8125V50.5926H107.444Z" fill="#8C3F5B"></path><path d="M76.8144 50.5926V53.9297H13.5508V50.5926H76.8144Z" fill="#772848"></path><path d="M43.2802 36.2461H33.4171C33.2976 19.6335 31.5737 10.8216 48.2615 2.83729L52.6719 13.2802L46.3672 17.0134C44.4641 18.1398 43.2802 20.4036 43.2802 22.9242V36.2461Z" fill="#BAAAB0"></path><path d="M53.5316 6.08217C54.8416 8.98113 54.6579 12.1213 53.1199 13.0972C49.0902 15.3345 44.9144 4.43575 48.371 2.60122C49.909 1.62531 52.2193 3.18543 53.5316 6.08217Z" fill="#6D6972"></path><path d="M68.4989 36.2461H58.6358C58.5163 19.6335 56.7925 10.8216 73.4803 2.83729L77.8907 13.2802L71.586 17.0134C69.6829 18.1398 68.4989 20.4036 68.4989 22.9242V36.2461Z" fill="#BAAAB0"></path><path d="M78.7533 6.08217C80.0656 8.98113 79.8797 12.1213 78.3417 13.0972C74.3119 15.3345 70.1361 4.43575 73.595 2.60122C75.133 1.62531 77.441 3.18543 78.7533 6.08217Z" fill="#6D6972"></path></svg> 